<svg width="25" height="39" viewBox="0 0 25 39" fill="none" xmlns="http://www.w3.org/2000/svg">
<path d="M24.2175 4.75028C23.8932 4.25364 23.4194 4.23938 22.8795 4.22312C22.8183 4.22128 22.7563 4.21941 22.6936 4.21682C22.6458 4.21462 22.5931 4.21547 22.538 4.21635C22.319 4.21987 22.0629 4.22398 21.9339 4.04001C21.7843 3.82672 21.7985 3.41452 21.8102 3.07424C21.8139 2.96671 21.8173 2.8663 21.8153 2.78168C21.7943 1.99121 21.7504 1.15152 21.4453 0.870808C21.2152 0.660198 20.5268 0.689375 19.892 0.716284C19.6862 0.725007 19.486 0.733491 19.3089 0.733491H5.79596C5.52389 0.733491 5.23869 0.711337 4.95847 0.68957C4.41245 0.647154 3.88533 0.606207 3.511 0.733491C2.96775 0.919119 2.93096 1.89456 2.89633 2.81308L2.89446 2.86249C2.86538 3.62077 2.67746 4.20588 2.05465 4.14694C1.33029 4.0795 0.609497 4.05824 0.281987 4.71383C-0.10481 5.4895 -0.0250374 6.30147 0.117847 7.75581C0.138258 7.96356 0.159956 8.18441 0.181766 8.42014H24.4264C24.4403 8.24784 24.455 8.07775 24.4696 7.91042C24.5831 6.60195 24.682 5.4619 24.2175 4.75028Z" fill="#8047F8"/>
<path fill-rule="evenodd" clip-rule="evenodd" d="M2.06987 9.86256C2.44852 14.9873 2.82304 20.118 3.19757 25.2487L3.1978 25.2519C3.40115 28.0377 3.60451 30.8235 3.80853 33.6085H4.58212C4.63483 34.0444 4.69515 34.5826 4.75874 35.15C4.88783 36.3018 5.03044 37.5743 5.15034 38.3562H5.2359C6.02387 38.0679 11.4712 35.7395 11.4736 26.4697C11.4726 26.4433 11.4735 26.4168 11.4762 26.3906H10.1304C10.0653 26.39 10.0021 26.3682 9.9507 26.3287C9.89927 26.2891 9.86241 26.234 9.84577 26.1717C9.71463 25.8478 9.60888 25.5143 9.52948 25.1743C8.73777 25.6214 8.10906 26.3042 7.73296 27.1254C7.37594 26.2844 7.32921 25.3462 7.60093 24.4746C7.87266 23.603 8.44556 22.8536 9.21952 22.3572C9.22949 19.6522 10.2423 17.0447 12.0661 15.0282L12.0946 15.0032C12.1476 14.9574 12.2155 14.9319 12.2859 14.9313C12.3266 14.9317 12.3668 14.9404 12.4039 14.9569C12.4415 14.9736 12.4751 14.9979 12.5026 15.0282C14.3478 17.0474 15.3552 19.68 15.3239 22.4009C16.1123 22.8835 16.6969 23.6324 16.9691 24.5087C17.2413 25.385 17.1827 26.3292 16.8042 27.166C16.4301 26.3436 15.8008 25.6602 15.0076 25.215C14.9592 25.5445 14.8699 25.8668 14.7419 26.1748C14.6977 26.3062 14.6091 26.3906 14.5205 26.3906H13.0853C13.0876 26.4063 13.0892 26.4221 13.0901 26.438L13.0907 26.4416V26.4493C13.0912 26.4629 13.0912 26.4766 13.0907 26.4903C13.1104 36.0262 18.902 38.1907 19.3902 38.3562H19.5572C19.5998 37.6051 19.7386 36.5687 19.8739 35.5583C19.9671 34.862 20.0587 34.1781 20.116 33.6085H20.8985C21.149 30.1006 21.4066 26.6025 21.6642 23.1043L21.6644 23.1024L21.6645 23.1014C21.994 18.6268 22.3235 14.1521 22.6381 9.65659H2.11998C2.06092 9.66813 2.06495 9.76474 2.06987 9.86256ZM12.2859 14.9313L12.2844 14.9313H12.2875L12.2859 14.9313Z" fill="#8047F8"/>
</svg>
